<svg width="94" height="115" viewBox="0 0 94 115" fill="none" xmlns="http://www.w3.org/2000/svg">
<path d="M37.1117 95.5464C35.1585 95.0581 33.1238 95.8719 31.7403 97.581C30.2754 95.8719 28.3221 95.0581 26.3689 95.5464C23.439 96.2789 21.8927 99.8598 22.8693 103.522C23.439 105.557 27.4269 109.463 27.4269 109.463L31.3334 113.533C31.5775 113.777 31.9031 113.777 32.0658 113.533L35.9723 109.463C35.9723 109.463 39.9602 105.557 40.5299 103.522C41.5879 99.8598 40.0416 96.2789 37.1117 95.5464Z" fill="#F38364" stroke="black" stroke-miterlimit="10"/>
<path d="M64.7826 104.499L70.8865 98.3948C71.619 97.6623 71.619 96.5229 70.8865 95.8719C70.1541 95.1394 69.0147 95.1394 68.3636 95.8719L62.2597 101.976L56.1558 95.8719C55.4233 95.1394 54.2839 95.1394 53.6328 95.8719C52.9004 96.6043 52.9004 97.7437 53.6328 98.3948L59.7367 104.499L53.6328 110.603C52.9004 111.335 52.9004 112.474 53.6328 113.126C54.3653 113.858 55.5047 113.858 56.1558 113.126L62.2597 107.022L68.3636 113.126C69.096 113.858 70.2354 113.858 70.8865 113.126C71.619 112.393 71.619 111.254 70.8865 110.603L64.7826 104.499Z" stroke="black" stroke-miterlimit="10"/>
<path d="M80.1646 85.8615H13.8356C6.42949 85.8615 0.406982 79.839 0.406982 72.433V13.8356C0.406982 6.42949 6.42949 0.406982 13.8356 0.406982H80.1646C87.5706 0.406982 93.5931 6.42949 93.5931 13.8356V72.433C93.5931 79.839 87.5706 85.8615 80.1646 85.8615Z" fill="#C2D7EF" stroke="black" stroke-miterlimit="10"/>
<path d="M26.2063 73.4093L26.6132 73.4907C27.6712 73.8163 28.8106 73.1652 29.1361 72.1072L44.1924 31.4959L36.1353 30.2751L24.7413 70.8864C24.4972 71.9444 25.0669 73.0838 26.2063 73.4093Z" fill="white" stroke="black" stroke-miterlimit="10"/>
<path d="M67.7943 73.4093L67.3873 73.4907C66.3293 73.8163 65.1899 73.1652 64.8644 72.1072L49.8081 31.4959L57.8652 30.2751L69.2592 70.8864C69.5033 71.9444 68.9337 73.0838 67.7943 73.4093Z" fill="white" stroke="black" stroke-miterlimit="10"/>
<path d="M53.7143 58.3532H40.2858C30.0312 58.3532 21.5671 49.9705 21.5671 39.6346V31.4147C21.5671 21.1601 29.9498 12.696 40.2858 12.696H53.7143C63.9689 12.696 72.4329 21.0787 72.4329 31.4147V39.716C72.4329 49.9705 63.9689 58.3532 53.7143 58.3532Z" fill="white" stroke="black" stroke-miterlimit="10"/>
<path d="M37.6815 23.8459C38.6254 23.8459 39.3906 23.0807 39.3906 22.1368C39.3906 21.1929 38.6254 20.4277 37.6815 20.4277C36.7376 20.4277 35.9724 21.1929 35.9724 22.1368C35.9724 23.0807 36.7376 23.8459 37.6815 23.8459Z" fill="white" stroke="black" stroke-miterlimit="10"/>
<path d="M47.0409 23.8459C47.9848 23.8459 48.75 23.0807 48.75 22.1368C48.75 21.1929 47.9848 20.4277 47.0409 20.4277C46.097 20.4277 45.3318 21.1929 45.3318 22.1368C45.3318 23.0807 46.097 23.8459 47.0409 23.8459Z" fill="white" stroke="black" stroke-miterlimit="10"/>
<path d="M56.3187 23.8459C57.2626 23.8459 58.0278 23.0807 58.0278 22.1368C58.0278 21.1929 57.2626 20.4277 56.3187 20.4277C55.3748 20.4277 54.6096 21.1929 54.6096 22.1368C54.6096 23.0807 55.3748 23.8459 56.3187 23.8459Z" fill="white" stroke="black" stroke-miterlimit="10"/>
<path d="M37.6815 32.8796C38.6254 32.8796 39.3906 32.1144 39.3906 31.1705C39.3906 30.2266 38.6254 29.4614 37.6815 29.4614C36.7376 29.4614 35.9724 30.2266 35.9724 31.1705C35.9724 32.1144 36.7376 32.8796 37.6815 32.8796Z" fill="white" stroke="black" stroke-miterlimit="10"/>
<path d="M47.0409 32.8796C47.9848 32.8796 48.75 32.1144 48.75 31.1705C48.75 30.2266 47.9848 29.4614 47.0409 29.4614C46.097 29.4614 45.3318 30.2266 45.3318 31.1705C45.3318 32.1144 46.097 32.8796 47.0409 32.8796Z" fill="white" stroke="black" stroke-miterlimit="10"/>
<path d="M56.3187 32.8796C57.2626 32.8796 58.0278 32.1144 58.0278 31.1705C58.0278 30.2266 57.2626 29.4614 56.3187 29.4614C55.3748 29.4614 54.6096 30.2266 54.6096 31.1705C54.6096 32.1144 55.3748 32.8796 56.3187 32.8796Z" fill="white" stroke="black" stroke-miterlimit="10"/>
<path d="M47.0409 54.6095C62.458 54.6095 74.956 50.82 74.956 46.1455C74.956 41.4709 62.458 37.6814 47.0409 37.6814C31.6238 37.6814 19.1257 41.4709 19.1257 46.1455C19.1257 50.82 31.6238 54.6095 47.0409 54.6095Z" fill="white" stroke="black" stroke-miterlimit="10"/>
<path d="M23.439 44.0293H70.6424H23.439Z" fill="white" stroke="black" stroke-miterlimit="10"/>
<path d="M76.2581 26.9385L72.3516 26.2061L68.201 49.0753C68.0382 49.8892 67.3057 50.4589 66.4919 50.4589H27.427C26.6131 50.4589 25.8806 49.8892 25.7179 49.0753L21.5672 26.2061L17.6607 26.9385C15.5447 27.3454 14.0798 29.3801 14.4867 31.5775L19.0443 55.2606C19.3698 57.1325 20.9975 58.4346 22.8694 58.4346H71.0495C72.9213 58.4346 74.549 57.0511 74.8746 55.2606L79.3508 31.5775C79.8391 29.3801 78.4555 27.3454 76.2581 26.9385Z" fill="white" stroke="black" stroke-miterlimit="10"/>
</svg>
