<?xml version="1.0" encoding="UTF-8"?>
<svg width="127px" height="23px" viewBox="0 0 127 23" version="1.1" xmlns="http://www.w3.org/2000/svg" xmlns:xlink="http://www.w3.org/1999/xlink">
    <!-- Generator: sketchtool 49 (51002) - http://www.bohemiancoding.com/sketch -->
    <title>CAD7E0A7-6D90-42B9-A8C1-A9888C43A832</title>
    <desc>Created with sketchtool.</desc>
    <defs>
        <polygon id="path-1" points="17.1052632 19.9897368 17.1052632 0.0805263158 0.446447368 0.0805263158 0.446447368 19.9897368"></polygon>
        <polygon id="path-3" points="6.10197368 0.309210526 0.629605263 0.309210526 0.629605263 8.59328947 6.10197368 8.59328947 6.10197368 0.309210526"></polygon>
        <polygon id="path-5" points="0.420657895 17.1052632 11.3653947 17.1052632 11.3653947 0.584736842 0.420657895 0.584736842"></polygon>
        <polygon id="path-7" points="5.47263158 0.309210526 0.000263157895 0.309210526 0.000263157895 8.59328947 5.47263158 8.59328947 5.47263158 0.309210526"></polygon>
        <polygon id="path-9" points="10.9460526 17.1052632 0 17.1052632 0 8.845 0 0.584736842 10.9460526 0.584736842"></polygon>
    </defs>
    <g id="Page-1" stroke="none" stroke-width="1" fill="none" fill-rule="evenodd">
        <g id="Desktop-Homepage-Design" transform="translate(-40.000000, -25.000000)">
            <g id="Nav-Bar-(logged-out)">
                <g id="Garance's-Bedroom" transform="translate(40.000000, 25.000000)">
                    <g id="Logo">
                        <path d="M31.1934211,0.881973684 L31.5157895,0.881973684 L41.0328947,12.0082895 L50.4592105,0.881973684 L50.7815789,0.881973684 L50.7815789,20.9964474 L47.8236842,20.9964474 L47.8236842,10.6609211 C47.8236842,9.57671053 47.9421053,7.87934211 47.9421053,7.82013158 C47.8828947,7.87934211 46.9460526,9.31355263 46.1552632,10.1925 L41.1473684,16.2240789 L40.7973684,16.2240789 L35.7907895,10.1925 C35.0592105,9.34381579 34.1223684,7.93855263 34.0342105,7.82013158 C34.0342105,7.87934211 34.1513158,9.57671053 34.1513158,10.6609211 L34.1513158,20.9964474 L31.1934211,20.9964474 L31.1934211,0.881973684 Z" id="Fill-1" fill="#000000"></path>
                        <path d="M71.1297368,11.0414474 C71.1297368,6.79539474 68.2021053,3.60460526 64.0442105,3.60460526 C59.8876316,3.60460526 56.9310526,6.79539474 56.9310526,11.0414474 C56.9310526,15.2875 59.8876316,18.4782895 64.0442105,18.4782895 C68.2021053,18.4782895 71.1297368,15.2875 71.1297368,11.0414474 M53.7692105,11.0414474 C53.7692105,5.09802632 58.335,0.823026316 64.0442105,0.823026316 C69.7257895,0.823026316 74.2915789,5.09802632 74.2915789,11.0414474 C74.2915789,16.9848684 69.7257895,21.2598684 64.0442105,21.2598684 C58.335,21.2598684 53.7692105,16.9848684 53.7692105,11.0414474" id="Fill-3" fill="#000000"></path>
                        <path d="M82.6235526,18.2731579 C87.8051316,18.2731579 90.2353947,15.2863158 90.2353947,11.0415789 C90.2353947,6.79552632 87.8051316,3.81 82.6235526,3.81 L80.4577632,3.81 L80.4577632,18.2731579 L82.6235526,18.2731579 Z M77.3525,1.08631579 L82.8288158,1.08631579 C89.2117105,1.08631579 93.4564474,5.06921053 93.4564474,11.0415789 C93.4564474,17.0139474 89.2406579,20.9955263 82.8288158,20.9955263 L77.3525,20.9955263 L77.3525,1.08631579 Z" id="Fill-5" fill="#000000"></path>
                        <path d="M95.0490789,17.1307895 L97.5964474,15.7255263 C98.5319737,17.2768421 99.7332895,18.5071053 102.162237,18.5071053 C104.181974,18.5071053 105.6175,17.4242105 105.6175,15.7847368 C105.6175,14.0571053 104.447763,13.2952632 102.279342,12.3294737 L100.962237,11.7439474 C98.0635526,10.4557895 96.3082895,8.99131579 96.3082895,5.91763158 C96.3082895,2.95973684 98.5898684,0.851842105 101.899079,0.851842105 C104.534605,0.851842105 106.320132,1.84789474 107.521447,3.98605263 L105.091184,5.47947368 C104.329342,4.16105263 103.451711,3.54657895 101.899079,3.54657895 C100.3175,3.54657895 99.3227632,4.51236842 99.3227632,5.85973684 C99.3227632,7.35184211 100.172763,8.02552632 102.1925,8.90447368 L103.479342,9.49 C106.876711,10.9834211 108.691184,12.5636842 108.691184,15.7557895 C108.691184,19.2386842 105.968816,21.2597368 102.221447,21.2597368 C98.4438158,21.2597368 96.1609211,19.3860526 95.0490789,17.1307895" id="Fill-7" fill="#000000"></path>
                        <g id="Group-11" transform="translate(109.210526, 1.006842)">
                            <mask id="mask-2" fill="white">
                                <use xlink:href="#path-1"></use>
                            </mask>
                            <g id="Clip-10"></g>
                            <path d="M7.38460526,12.6989474 L0.446447368,0.0805263158 L3.92934211,0.0805263158 L7.76486842,7.25289474 C8.32144737,8.33710526 8.96618421,10.0936842 8.96618421,10.0936842 C8.96618421,10.0936842 9.60960526,8.36605263 10.1661842,7.25289474 L13.9148684,0.0805263158 L17.1056579,0.0805263158 L10.4885526,12.4936842 L10.4885526,19.9897368 L7.38460526,19.9897368 L7.38460526,12.6989474 Z" id="Fill-9" fill="#000000" mask="url(#mask-2)"></path>
                        </g>
                        <polygon id="Fill-12" fill="#067039" points="10.9464474 5.85473684 10.9464474 11.3639474 16.4188158 5.82447368 16.4188158 0.316578947"></polygon>
                        <path d="M21.8930263,5.85342105 L21.8917105,5.85473684" id="Fill-14" fill="#057139"></path>
                        <g id="Group-18" transform="translate(15.789474, 0.006842)">
                            <mask id="mask-4" fill="white">
                                <use xlink:href="#path-3"></use>
                            </mask>
                            <g id="Clip-17"></g>
                            <polygon id="Fill-16" fill="#FBD206" mask="url(#mask-4)" points="0.629605263 0.309078947 0.629605263 5.81828947 3.37302632 8.59328947 6.10197368 5.84723684"></polygon>
                        </g>
                        <g id="Group-21" transform="translate(10.526316, 5.270000)">
                            <mask id="mask-6" fill="white">
                                <use xlink:href="#path-5"></use>
                            </mask>
                            <g id="Clip-20"></g>
                            <polygon id="Fill-19" fill="#4978BC" mask="url(#mask-6)" points="11.3653947 0.584736842 0.420657895 11.5965789 0.420657895 17.1057895 11.3653947 6.09394737"></polygon>
                        </g>
                        <polygon id="Fill-22" fill="#F7ACBC" points="10.9464474 5.85473684 10.9464474 11.3639474 5.47276316 5.82447368 5.47276316 0.316578947"></polygon>
                        <g id="Group-26" transform="translate(0.000000, 0.006842)">
                            <mask id="mask-8" fill="white">
                                <use xlink:href="#path-7"></use>
                            </mask>
                            <g id="Clip-25"></g>
                            <polygon id="Fill-24" fill="#7F4720" mask="url(#mask-8)" points="5.47263158 0.309078947 5.47263158 5.81828947 2.72921053 8.59328947 0.000263157895 5.84723684"></polygon>
                        </g>
                        <g id="Group-29" transform="translate(0.000000, 5.270000)">
                            <mask id="mask-10" fill="white">
                                <use xlink:href="#path-9"></use>
                            </mask>
                            <g id="Clip-28"></g>
                            <polygon id="Fill-27" fill="#EF4E22" mask="url(#mask-10)" points="0 0.584736842 10.9460526 11.5965789 10.9460526 17.1057895 0 6.09394737"></polygon>
                        </g>
                    </g>
                </g>
            </g>
        </g>
    </g>
</svg>