<svg width="158" height="118" viewBox="0 0 158 118" fill="none" xmlns="http://www.w3.org/2000/svg">
<path d="M148.849 81.5798H60.4546C55.6844 81.5798 51.7904 77.6858 51.7904 72.9156V9.15102C51.7904 4.38084 55.6844 0.486816 60.4546 0.486816H148.849C153.619 0.486816 157.513 4.38084 157.513 9.15102V72.9156C157.513 77.6858 153.619 81.5798 148.849 81.5798Z" fill="white" stroke="black" stroke-miterlimit="10"/>
<path d="M152.256 83.819H56.95C54.1268 83.819 51.7904 81.4826 51.7904 78.6594V47.7019H157.513V78.562C157.513 81.4826 155.177 83.819 152.256 83.819Z" fill="#F38364" stroke="black" stroke-miterlimit="10"/>
<path d="M70.0924 65.7116C69.2162 65.7116 68.5348 65.0302 68.5348 64.154V61.0388H71.65V64.154C71.65 65.0302 70.9685 65.7116 70.0924 65.7116Z" fill="white" stroke="black" stroke-miterlimit="10"/>
<path d="M112.537 65.7116C111.661 65.7116 110.98 65.0302 110.98 64.154V61.0388H114.095V64.154C114.095 65.0302 113.413 65.7116 112.537 65.7116Z" fill="white" stroke="black" stroke-miterlimit="10"/>
<path d="M119.839 60.8441H62.6937V38.1614C62.6937 37.3826 63.3752 36.7012 64.154 36.7012H118.476C119.254 36.7012 119.936 37.3826 119.936 38.1614V60.8441H119.839Z" fill="white" stroke="black" stroke-miterlimit="10"/>
<path d="M81.385 55.5871H61.7202V51.7904C61.7202 50.8169 62.499 50.0381 63.4725 50.0381H79.8274C80.8009 50.0381 81.5797 50.8169 81.5797 51.7904V55.5871H81.385Z" fill="white" stroke="black" stroke-miterlimit="10"/>
<path d="M101.147 55.5871H81.385V51.7904C81.385 50.8169 82.1638 50.0381 83.1373 50.0381H99.4922C100.466 50.0381 101.245 50.8169 101.245 51.7904V55.5871H101.147Z" fill="white" stroke="black" stroke-miterlimit="10"/>
<path d="M120.909 55.5871H101.147V51.7904C101.147 50.8169 101.926 50.0381 102.9 50.0381H119.254C120.228 50.0381 121.007 50.8169 121.007 51.7904V55.5871H120.909Z" fill="white" stroke="black" stroke-miterlimit="10"/>
<path d="M66.9772 60.844H59.5786L58.4104 45.56C58.313 44.6838 59.0918 43.905 59.968 43.905H62.6938C63.4726 43.905 64.0567 44.4891 64.2514 45.1706L66.9772 60.844Z" fill="white" stroke="black" stroke-miterlimit="10"/>
<path d="M115.652 60.844H123.051L124.219 45.56C124.317 44.6838 123.538 43.905 122.662 43.905H119.936C119.157 43.905 118.573 44.4891 118.378 45.1706L115.652 60.844Z" fill="white" stroke="black" stroke-miterlimit="10"/>
<path d="M91.3149 44.7812C91.9601 44.7812 92.4831 44.2582 92.4831 43.613C92.4831 42.9678 91.9601 42.4448 91.3149 42.4448C90.6698 42.4448 90.1467 42.9678 90.1467 43.613C90.1467 44.2582 90.6698 44.7812 91.3149 44.7812Z" fill="white" stroke="#4978BC" stroke-miterlimit="10"/>
<path d="M80.509 44.7812C81.1542 44.7812 81.6772 44.2582 81.6772 43.613C81.6772 42.9678 81.1542 42.4448 80.509 42.4448C79.8638 42.4448 79.3408 42.9678 79.3408 43.613C79.3408 44.2582 79.8638 44.7812 80.509 44.7812Z" fill="white" stroke="#4978BC" stroke-miterlimit="10"/>
<path d="M69.8004 44.7812C70.4456 44.7812 70.9686 44.2582 70.9686 43.613C70.9686 42.9678 70.4456 42.4448 69.8004 42.4448C69.1552 42.4448 68.6322 42.9678 68.6322 43.613C68.6322 44.2582 69.1552 44.7812 69.8004 44.7812Z" fill="white" stroke="#4978BC" stroke-miterlimit="10"/>
<path d="M102.023 44.7812C102.669 44.7812 103.192 44.2582 103.192 43.613C103.192 42.9678 102.669 42.4448 102.023 42.4448C101.378 42.4448 100.855 42.9678 100.855 43.613C100.855 44.2582 101.378 44.7812 102.023 44.7812Z" fill="white" stroke="#4978BC" stroke-miterlimit="10"/>
<path d="M112.829 44.7812C113.475 44.7812 113.998 44.2582 113.998 43.613C113.998 42.9678 113.475 42.4448 112.829 42.4448C112.184 42.4448 111.661 42.9678 111.661 43.613C111.661 44.2582 112.184 44.7812 112.829 44.7812Z" fill="white" stroke="black" stroke-miterlimit="10"/>
<path d="M139.99 22.3906H136.875V65.6143H139.99V22.3906Z" fill="#C2D7EF" stroke="black" stroke-miterlimit="10"/>
<path d="M147.389 15.5762H129.087L125.777 31.347H150.699L147.389 15.5762Z" fill="white" stroke="black" stroke-miterlimit="10"/>
<path d="M130.06 41.2768C130.705 41.2768 131.229 40.7538 131.229 40.1086C131.229 39.4635 130.705 38.9404 130.06 38.9404C129.415 38.9404 128.892 39.4635 128.892 40.1086C128.892 40.7538 129.415 41.2768 130.06 41.2768Z" fill="white" stroke="black" stroke-miterlimit="10"/>
<path d="M145.928 66.0037H130.644V69.6056H145.928V66.0037Z" fill="white" stroke="black" stroke-miterlimit="10"/>
<path d="M130.06 31.2495V38.6482V31.2495Z" stroke="#231F20" stroke-miterlimit="10"/>
<path d="M97.5452 105.334H9.1509C4.38072 105.334 0.486694 101.439 0.486694 96.6693V32.9047C0.486694 28.1345 4.38072 24.2405 9.1509 24.2405H97.5452C102.315 24.2405 106.209 28.1345 106.209 32.9047V96.6693C106.209 101.439 102.315 105.334 97.5452 105.334Z" fill="white" stroke="black" stroke-miterlimit="10"/>
<path d="M90.4386 41.9583H15.7708V92.2885H90.4386V41.9583Z" fill="#C2D7EF" stroke="black" stroke-miterlimit="10"/>
<path d="M53.1533 72.9158C58.046 72.9158 62.0122 68.9495 62.0122 64.0569C62.0122 59.1643 58.046 55.198 53.1533 55.198C48.2607 55.198 44.2944 59.1643 44.2944 64.0569C44.2944 68.9495 48.2607 72.9158 53.1533 72.9158Z" fill="white" stroke="black" stroke-miterlimit="10"/>
<path d="M76.4201 35.8252H29.7892V49.7463H76.4201V35.8252Z" fill="white" stroke="black" stroke-miterlimit="10"/>
<path d="M78.6592 34.1702H27.6475V38.6483H78.6592V34.1702Z" fill="white" stroke="black" stroke-miterlimit="10"/>
<path d="M28.0369 52.3747H26.5767C25.7005 52.3747 25.019 51.6932 25.019 50.8171V40.3032C25.019 39.4271 25.7005 38.7456 26.5767 38.7456H28.0369C28.9131 38.7456 29.5945 39.4271 29.5945 40.3032V50.7197C29.5945 51.6932 28.9131 52.3747 28.0369 52.3747Z" fill="white" stroke="black" stroke-miterlimit="10"/>
<path d="M79.6327 52.3747H77.7831C76.9069 52.3747 76.2255 51.6932 76.2255 50.8171V40.3032C76.2255 39.4271 76.9069 38.7456 77.7831 38.7456H79.6327C80.5089 38.7456 81.1903 39.4271 81.1903 40.3032V50.7197C81.093 51.5959 80.4115 52.3747 79.6327 52.3747Z" fill="white" stroke="black" stroke-miterlimit="10"/>
<path d="M53.1533 39.135V48.7727" stroke="black" stroke-miterlimit="10"/>
<path d="M36.2144 64.1541H25.1165V77.199H36.2144V64.1541Z" fill="white" stroke="black" stroke-miterlimit="10"/>
<path d="M25.7005 64.3488V77.1017C25.7005 78.1726 24.8244 79.1461 23.6562 79.1461H22.6827C21.6118 79.1461 20.6383 78.2699 20.6383 77.1017V64.3488C20.6383 63.2779 21.5145 62.3044 22.6827 62.3044H23.6562C24.8244 62.3044 25.7005 63.1806 25.7005 64.3488Z" fill="white" stroke="black" stroke-miterlimit="10"/>
<path d="M35.825 66.9771H27.2582C26.382 66.9771 25.7006 66.2957 25.7006 65.4195V64.0566C25.7006 63.1805 26.382 62.499 27.2582 62.499H35.825C36.7012 62.499 37.3826 63.1805 37.3826 64.0566V65.4195C37.48 66.2957 36.7012 66.9771 35.825 66.9771Z" fill="white" stroke="black" stroke-miterlimit="10"/>
<path d="M35.825 78.9513H27.2582C26.382 78.9513 25.7006 78.2698 25.7006 77.3937V76.0308C25.7006 75.1546 26.382 74.4731 27.2582 74.4731H35.825C36.7012 74.4731 37.3826 75.1546 37.3826 76.0308V77.3937C37.48 78.2698 36.7012 78.9513 35.825 78.9513Z" fill="white" stroke="black" stroke-miterlimit="10"/>
<path d="M64.1947 76.7938L72.486 84.1707L81.157 74.4247L72.8657 67.0479L64.1947 76.7938Z" fill="white" stroke="black" stroke-miterlimit="10"/>
<path d="M80.6062 74.2787L72.1367 83.819C71.3579 84.5979 71.4553 85.8634 72.3314 86.6422L73.0129 87.3237C73.7917 88.1025 75.0572 88.0051 75.836 87.129L84.3055 77.5886C85.0843 76.8098 84.987 75.5443 84.1108 74.7654L83.4294 74.084C82.6506 73.3052 81.385 73.4025 80.6062 74.2787Z" fill="white" stroke="black" stroke-miterlimit="10"/>
<path d="M71.2607 69.5085L77.5884 75.1548C78.2699 75.7389 79.2434 75.6416 79.8275 75.0575L80.7037 74.084C81.2878 73.4025 81.1904 72.429 80.6063 71.8449L74.2785 66.1986C73.5971 65.6145 72.6236 65.7118 72.0395 66.2959L71.1633 67.2694C70.5792 67.8535 70.5792 68.9244 71.2607 69.5085Z" fill="white" stroke="black" stroke-miterlimit="10"/>
<path d="M63.3752 78.3674L69.703 84.0137C70.3845 84.5978 71.358 84.5005 71.9421 83.9164L72.8182 82.9429C73.4023 82.2614 73.305 81.2879 72.7209 80.7038L66.3931 75.0575C65.7116 74.4734 64.7381 74.5707 64.154 75.1548L63.2779 76.1283C62.5964 76.8098 62.6938 77.7833 63.3752 78.3674Z" fill="white" stroke="black" stroke-miterlimit="10"/>
<path d="M36.7985 110.882L36.5064 103.386L36.2144 97.2533C36.2144 96.5719 35.6303 96.3772 35.1435 96.7666L30.4707 100.758L24.8243 105.723L28.4263 107.28L25.2137 115.458L29.5945 117.21L32.8071 109.13L36.7985 110.882Z" fill="white" stroke="black" stroke-miterlimit="10"/>
</svg>
