<svg width="127" height="112" viewBox="0 0 127 112" fill="none" xmlns="http://www.w3.org/2000/svg">
<path d="M93.7761 78.4275H8.79742C4.21157 78.4275 0.468018 74.6839 0.468018 70.0981V8.79742C0.468018 4.21157 4.21157 0.468018 8.79742 0.468018H93.7761C98.3619 0.468018 102.105 4.21157 102.105 8.79742V70.0981C102.105 74.6839 98.3619 78.4275 93.7761 78.4275Z" fill="white" stroke="black" stroke-miterlimit="10"/>
<path d="M104.445 91.8106H20.964C16.2846 91.8106 12.541 88.067 12.541 83.3876V19.7472C12.541 15.0678 16.2846 11.3242 20.964 11.3242H104.445C109.125 11.3242 112.868 15.0678 112.868 19.7472V83.294C112.868 87.9734 109.031 91.8106 104.445 91.8106Z" fill="white" stroke="black" stroke-miterlimit="10"/>
<path d="M118.203 102.293H33.2242C28.6383 102.293 24.8948 98.5492 24.8948 93.9633V32.6627C24.8948 28.0768 28.6383 24.3333 33.2242 24.3333H118.203C122.789 24.3333 126.532 28.0768 126.532 32.6627V93.9633C126.532 98.6428 122.789 102.293 118.203 102.293Z" fill="white" stroke="black" stroke-miterlimit="10"/>
<path d="M113.243 31.7266H41.46V92.1849H113.243V31.7266Z" fill="#C2D7EF" stroke="black" stroke-miterlimit="10"/>
<path d="M113.686 83.5322L113.686 38.6096H96.6529V83.5322H113.686Z" fill="white" stroke="black" stroke-miterlimit="10"/>
<path d="M110.154 82.8262V39.401C110.154 37.81 111.464 36.4998 113.055 36.4998H113.804C115.395 36.4998 116.705 37.81 116.705 39.401V82.8262C116.705 84.4172 115.395 85.7275 113.804 85.7275H113.055C111.464 85.7275 110.154 84.4172 110.154 82.8262Z" fill="white" stroke="black" stroke-miterlimit="10"/>
<path d="M93.4954 39.5881V38.5586C93.4954 37.6227 94.2441 36.874 95.18 36.874H108.376C109.312 36.874 110.061 37.6227 110.061 38.5586V39.5881C110.061 40.524 109.312 41.2727 108.376 41.2727H95.18C94.2441 41.1791 93.4954 40.4304 93.4954 39.5881Z" fill="white" stroke="black" stroke-miterlimit="10"/>
<path d="M93.5889 83.575V82.1712C93.5889 81.2353 94.3376 80.4866 95.2735 80.4866H108.376C109.312 80.4866 110.061 81.2353 110.061 82.1712V83.575C110.061 84.5109 109.312 85.2596 108.376 85.2596H95.2735C94.3376 85.2596 93.5889 84.5109 93.5889 83.575Z" fill="white" stroke="black" stroke-miterlimit="10"/>
<path d="M109.593 61.1135H97.8005" stroke="black" stroke-miterlimit="10"/>
<path d="M63.9091 41.8111L54.373 37.0271L48.7497 48.2362L58.2858 53.0202L63.9091 41.8111Z" fill="white" stroke="black" stroke-miterlimit="10"/>
<path d="M57.3701 39.6816L51.8483 50.6315C51.3804 51.5674 50.2573 51.9418 49.2278 51.4738L48.3856 51.0995C47.4497 50.6315 47.0753 49.5085 47.5433 48.479L53.065 37.5291C53.5329 36.5932 54.656 36.2189 55.6855 36.6868L56.5278 37.0612C57.4637 37.5291 57.9316 38.7458 57.3701 39.6816Z" fill="white" stroke="black" stroke-miterlimit="10"/>
<path d="M65.0445 46.3265L57.7445 42.6765C56.9958 42.3022 56.7151 41.3663 57.0894 40.6176L57.6509 39.4945C58.0253 38.7458 58.9612 38.4651 59.7099 38.8394L67.0098 42.4894C67.7585 42.8637 68.0393 43.7996 67.6649 44.5483L67.1034 45.6714C66.6355 46.4201 65.7932 46.7009 65.0445 46.3265Z" fill="white" stroke="black" stroke-miterlimit="10"/>
<path d="M59.897 56.6212L52.5971 52.9712C51.8484 52.5969 51.5676 51.661 51.942 50.9123L52.5035 49.7892C52.8778 49.0405 53.8137 48.7597 54.5624 49.1341L61.8624 52.7841C62.6111 53.1584 62.8918 54.0943 62.5175 54.843L61.956 55.9661C61.488 56.6212 60.6457 56.9955 59.897 56.6212Z" fill="white" stroke="black" stroke-miterlimit="10"/>
<path d="M56.5889 63.5981L46.2622 66.2803L48.9915 76.7881L59.3181 74.1059L56.5889 63.5981Z" fill="white" stroke="black" stroke-miterlimit="10"/>
<path d="M48.3855 64.7635L51.6611 77.3044C51.8483 78.1467 51.3803 78.989 50.538 79.2697C49.6957 79.4569 48.8534 78.989 48.5727 78.1467L45.2971 65.5122C45.1099 64.6699 45.5778 63.8276 46.4201 63.5468C47.2624 63.3596 48.1983 63.9212 48.3855 64.7635Z" fill="white" stroke="black" stroke-miterlimit="10"/>
<path d="M32.8496 106.036L33.4112 98.8299L33.8791 92.9338C33.9727 92.2787 33.4112 91.9979 32.8496 92.3723L27.983 95.6479L21.9933 99.6722L25.2689 101.544L21.2446 109.031L25.1754 111.184L29.1061 103.884L32.8496 106.036Z" fill="white" stroke="black" stroke-miterlimit="10"/>
<path d="M88.8158 50.2573H75.9941V72.8122H88.8158V50.2573Z" fill="#F38364" stroke="black" stroke-miterlimit="10"/>
<path d="M61.4879 85.2596C63.5554 85.2596 65.2315 83.5835 65.2315 81.516C65.2315 79.4485 63.5554 77.7725 61.4879 77.7725C59.4204 77.7725 57.7444 79.4485 57.7444 81.516C57.7444 83.5835 59.4204 85.2596 61.4879 85.2596Z" fill="white" stroke="black" stroke-miterlimit="10"/>
</svg>
