<svg width="101" height="141" viewBox="0 0 101 141" fill="none" xmlns="http://www.w3.org/2000/svg">
<g clip-path="url(#clip0)">
<path d="M42.3629 140.581C44.6794 140.581 46.5573 138.707 46.5573 136.395C46.5573 134.083 44.6794 132.208 42.3629 132.208C40.0465 132.208 38.1686 134.083 38.1686 136.395C38.1686 138.707 40.0465 140.581 42.3629 140.581Z" fill="#F38364" stroke="black" stroke-miterlimit="10"/>
<path d="M82.8803 140.581C85.1967 140.581 87.0746 138.707 87.0746 136.395C87.0746 134.083 85.1967 132.208 82.8803 132.208C80.5638 132.208 78.6859 134.083 78.6859 136.395C78.6859 138.707 80.5638 140.581 82.8803 140.581Z" fill="#F38364" stroke="black" stroke-miterlimit="10"/>
<path d="M44.9635 95.4515L45.299 95.6189C46.1379 96.1213 47.3123 95.7864 47.8156 94.9491L69.7102 63.0482L62.9992 60.2852L44.2924 92.9396C43.7891 93.7769 44.1246 94.9491 44.9635 95.4515Z" fill="white" stroke="black" stroke-miterlimit="10"/>
<path d="M81.1186 104.41H80.6992C79.6925 104.41 78.8537 103.657 78.8537 102.652L74.5754 64.2205L81.7897 64.8903L82.8803 102.485C82.8803 103.573 82.1253 104.41 81.1186 104.41Z" fill="white" stroke="black" stroke-miterlimit="10"/>
<path d="M72.1431 88.4181L60.5667 85.4876C51.6747 83.2269 46.1381 74.1842 48.4031 65.2251L50.1647 58.0244C52.4297 49.1491 61.4895 43.623 70.4654 45.8837L82.0418 48.8142C90.9338 51.0749 96.4704 60.1177 94.2054 69.0767L92.4438 76.2774C90.1788 85.1527 81.0351 90.5951 72.1431 88.4181Z" fill="white" stroke="black" stroke-miterlimit="10"/>
<path d="M66.103 55.0101C66.9369 55.0101 67.6129 54.3353 67.6129 53.503C67.6129 52.6706 66.9369 51.9958 66.103 51.9958C65.2691 51.9958 64.593 52.6706 64.593 53.503C64.593 54.3353 65.2691 55.0101 66.103 55.0101Z" fill="white" stroke="black" stroke-miterlimit="10"/>
<path d="M74.1563 57.0196C74.9903 57.0196 75.6663 56.3449 75.6663 55.5125C75.6663 54.6801 74.9903 54.0054 74.1563 54.0054C73.3224 54.0054 72.6464 54.6801 72.6464 55.5125C72.6464 56.3449 73.3224 57.0196 74.1563 57.0196Z" fill="white" stroke="black" stroke-miterlimit="10"/>
<path d="M82.2935 59.0291C83.1275 59.0291 83.8035 58.3544 83.8035 57.522C83.8035 56.6897 83.1275 56.0149 82.2935 56.0149C81.4596 56.0149 80.7836 56.6897 80.7836 57.522C80.7836 58.3544 81.4596 59.0291 82.2935 59.0291Z" fill="white" stroke="black" stroke-miterlimit="10"/>
<path d="M64.0898 62.8807C64.9237 62.8807 65.5998 62.2059 65.5998 61.3736C65.5998 60.5412 64.9237 59.8665 64.0898 59.8665C63.2559 59.8665 62.5798 60.5412 62.5798 61.3736C62.5798 62.2059 63.2559 62.8807 64.0898 62.8807Z" fill="white" stroke="black" stroke-miterlimit="10"/>
<path d="M72.2271 64.8902C73.061 64.8902 73.7371 64.2155 73.7371 63.3831C73.7371 62.5507 73.061 61.876 72.2271 61.876C71.3932 61.876 70.7172 62.5507 70.7172 63.3831C70.7172 64.2155 71.3932 64.8902 72.2271 64.8902Z" fill="white" stroke="black" stroke-miterlimit="10"/>
<path d="M80.2797 66.8997C81.1137 66.8997 81.7897 66.225 81.7897 65.3926C81.7897 64.5603 81.1137 63.8855 80.2797 63.8855C79.4458 63.8855 78.7698 64.5603 78.7698 65.3926C78.7698 66.225 79.4458 66.8997 80.2797 66.8997Z" fill="white" stroke="black" stroke-miterlimit="10"/>
<path d="M93.2241 82.3982C94.2352 78.3604 84.1963 72.3782 70.8015 69.0365C57.4067 65.6948 45.7285 66.2591 44.7173 70.2968C43.7062 74.3346 53.7451 80.3169 67.1399 83.6586C80.5346 87.0003 92.2129 86.436 93.2241 82.3982Z" fill="white" stroke="black" stroke-miterlimit="10"/>
<path d="M48.9065 69.4116L89.8434 79.6266L48.9065 69.4116Z" fill="white" stroke="black" stroke-miterlimit="10"/>
<path d="M98.4835 66.0626L95.2957 64.6392L86.7393 83.4782C86.4037 84.1481 85.6487 84.483 84.9776 84.3155L51.0873 75.8589C50.3323 75.6914 49.9129 75.0216 49.9129 74.268L51.2551 53.5869L47.7318 53.3357C45.8024 53.1683 44.1247 54.6754 43.9569 56.6012L42.7825 78.1196C42.6986 79.7942 43.7891 81.3013 45.4669 81.7199L87.2426 92.1861C88.9203 92.6047 90.5981 91.7674 91.2692 90.2603L100.245 70.7514C101.084 68.9094 100.245 66.8161 98.4835 66.0626Z" fill="white" stroke="black" stroke-miterlimit="10"/>
<path d="M31.1216 13.7966L26.4972 14.6223L41.0186 95.6442L45.643 94.8185L31.1216 13.7966Z" fill="#C2D7EF" stroke="black" stroke-miterlimit="10"/>
<path d="M41.7758 0.502441L11.8281 5.77738L10.9893 32.4033L51.8422 25.1188L41.7758 0.502441Z" fill="white" stroke="black" stroke-miterlimit="10"/>
<path d="M20.6366 47.4746C21.7021 47.4746 22.566 46.6124 22.566 45.5488C22.566 44.4852 21.7021 43.623 20.6366 43.623C19.571 43.623 18.7072 44.4852 18.7072 45.5488C18.7072 46.6124 19.571 47.4746 20.6366 47.4746Z" fill="white" stroke="black" stroke-miterlimit="10"/>
<path d="M18.0355 30.98L20.1327 43.1207L18.0355 30.98Z" fill="white" stroke="black" stroke-miterlimit="10"/>
<path d="M19.462 65.3088C22.7335 68.2393 24.1596 71.5047 24.1596 71.5047C24.1596 71.5047 20.3008 70.0813 17.1131 67.1508C13.9254 64.2203 11.7443 61.4572 12.4154 60.9549C13.0027 60.4525 16.1904 62.3782 19.462 65.3088Z" fill="white" stroke="black" stroke-miterlimit="10"/>
<path d="M32.3804 59.6152C32.2966 63.9691 33.8065 67.2345 33.8065 67.2345C33.8065 67.2345 35.3165 63.4667 35.4004 59.1128C35.4843 54.7589 34.8132 51.326 33.9743 51.4934C33.1354 51.5772 32.3804 55.2612 32.3804 59.6152Z" fill="white" stroke="black" stroke-miterlimit="10"/>
<path d="M24.2433 61.9595C26.6761 66.7321 27.1794 71.2534 27.1794 71.2534C27.1794 71.2534 23.8239 68.0717 21.4751 63.2992C19.0423 58.5266 17.784 54.3401 18.539 54.0052C19.294 53.6703 21.8106 57.1869 24.2433 61.9595Z" fill="white" stroke="black" stroke-miterlimit="10"/>
<path d="M26.6758 60.8711C28.6052 65.8111 31.5413 69.3277 31.5413 69.3277C31.5413 69.3277 31.3735 64.7226 29.528 59.6989C27.5986 54.7589 25.4175 50.9073 24.6625 51.2422C23.9075 51.5771 24.7464 55.9311 26.6758 60.8711Z" fill="white" stroke="black" stroke-miterlimit="10"/>
<path d="M42.615 81.0498L28.3542 87.3295C27.0959 87.9156 25.5859 87.3295 25.0826 86.0735L18.2877 70.6674L37.1623 62.3782L43.9572 77.7844C44.4605 79.0403 43.8733 80.5474 42.615 81.0498Z" fill="#F38364" stroke="black" stroke-miterlimit="10"/>
<path d="M45.907 80.3159L25.6477 89.2439L26.9013 92.0779L47.1607 83.1499L45.907 80.3159Z" fill="white" stroke="black" stroke-miterlimit="10"/>
<path d="M29.7802 101.731C29.1091 102.066 28.2702 101.731 27.9347 100.977L18.791 80.38L21.3915 79.2078L30.5352 99.8889C30.7869 100.559 30.5352 101.396 29.7802 101.731Z" fill="white" stroke="black" stroke-miterlimit="10"/>
<path d="M52.3459 91.7671C51.6748 92.102 50.8359 91.7671 50.5004 91.0135L41.3567 70.4161L43.9572 69.2439L53.1009 89.925C53.3525 90.6786 53.017 91.4322 52.3459 91.7671Z" fill="white" stroke="black" stroke-miterlimit="10"/>
<path d="M41.6923 98.2144C41.0212 98.5493 40.1823 98.2144 39.8467 97.4608L30.1158 75.3563L32.7163 74.1841L42.4472 96.2886C42.6989 97.0422 42.4472 97.8795 41.6923 98.2144Z" fill="white" stroke="black" stroke-miterlimit="10"/>
<path d="M84.2224 119.733H35.4002C33.7224 119.733 32.1286 118.812 31.6253 117.472L15.0156 83.3105L91.4367 83.2268C94.0372 83.2268 95.8827 85.2363 95.3794 87.4133L88.1651 116.97C87.8296 118.561 86.1518 119.733 84.2224 119.733Z" fill="#C2D7EF" stroke="black" stroke-miterlimit="10"/>
<path d="M15.0158 83.3105L11.0731 75.7749L0.419434 76.2773" stroke="black" stroke-miterlimit="10" stroke-linecap="round"/>
<path d="M32.4645 119.063L37.4138 128.189L85.8166 128.106" stroke="black" stroke-miterlimit="10" stroke-linecap="round"/>
<path d="M23.9077 101.563H91.6884" stroke="black" stroke-miterlimit="10"/>
</g>
<defs>
<clipPath id="clip0">
<rect width="101" height="141" fill="white"/>
</clipPath>
</defs>
</svg>
