<svg width="125" height="115" viewBox="0 0 125 115" fill="none" xmlns="http://www.w3.org/2000/svg">
<path d="M45.2537 113.737H10.9036C5.05986 113.737 0.356323 109.028 0.356323 103.177V23.9033C0.356323 18.0523 5.05986 13.343 10.9036 13.343H45.2537C51.0975 13.343 55.801 18.0523 55.801 23.9033V103.177C55.801 108.956 51.0975 113.737 45.2537 113.737Z" fill="white" stroke="black" stroke-miterlimit="10"/>
<path d="M51.3825 57.2966H4.77478V89.9051H51.3825V57.2966Z" fill="#F38364" stroke="black" stroke-miterlimit="10"/>
<path d="M51.3825 27.6851H4.77478V62.2201H51.3825V27.6851Z" fill="white" stroke="black" stroke-miterlimit="10"/>
<path d="M51.3825 90.262H4.77478V102.321H51.3825V90.262Z" fill="#C2D7EF" stroke="black" stroke-miterlimit="10"/>
<path d="M51.3825 27.1855H4.77478V32.8938H51.3825V27.1855Z" fill="#C2D7EF" stroke="black" stroke-miterlimit="10"/>
<path d="M33.4236 40.4573H13.3979V54.5139H33.4236V40.4573Z" fill="white" stroke="black" stroke-miterlimit="10"/>
<path d="M23.3751 20.9778H33.6374" stroke="black" stroke-miterlimit="10"/>
<path d="M28.0787 99.6092C30.2041 99.6092 31.927 97.8841 31.927 95.7561C31.927 93.6282 30.2041 91.9031 28.0787 91.9031C25.9533 91.9031 24.2303 93.6282 24.2303 95.7561C24.2303 97.8841 25.9533 99.6092 28.0787 99.6092Z" fill="white" stroke="black" stroke-miterlimit="10"/>
<path d="M44.0422 7.63473L44.5411 0.356689" stroke="black" stroke-miterlimit="10" stroke-linecap="round"/>
<path d="M56.6562 11.7732L61.9299 5.85083" stroke="black" stroke-miterlimit="10" stroke-linecap="round"/>
<path d="M23.4464 40.2432V54.0143" stroke="black" stroke-miterlimit="10"/>
<path d="M13.0416 47.45H33.6374" stroke="black" stroke-miterlimit="10"/>
<path d="M14.2532 82.9125C13.6831 82.9125 13.1842 82.4131 13.1842 81.8422V68.071H15.3934V81.8422C15.3934 82.4844 14.8946 82.9125 14.2532 82.9125Z" fill="white" stroke="black" stroke-miterlimit="10"/>
<path d="M27.9362 82.9125C27.366 82.9125 26.8672 82.4131 26.8672 81.8422V68.071H29.0764V81.8422C29.0764 82.4844 28.5776 82.9125 27.9362 82.9125Z" fill="white" stroke="black" stroke-miterlimit="10"/>
<path d="M30.9293 67.0007H11.26V70.8538H30.9293V67.0007Z" fill="#C2D7EF" stroke="black" stroke-miterlimit="10"/>
<path d="M43.6147 82.7697C43.1159 83.0551 42.4032 82.9124 42.1182 82.3416L39.125 77.1328L41.0492 76.0625L44.0423 81.2713C44.2561 81.8421 44.1136 82.4843 43.6147 82.7697Z" fill="white" stroke="black" stroke-miterlimit="10"/>
<path d="M32.711 82.7697C32.2122 82.4843 31.9984 81.7708 32.2834 81.2713L35.2766 76.0625L37.2008 77.1328L34.2076 82.3416C33.9226 82.9124 33.2812 83.1265 32.711 82.7697Z" fill="white" stroke="black" stroke-miterlimit="10"/>
<path d="M42.5458 77.2756H33.7801C32.9962 77.2756 32.426 76.6335 32.426 75.9199C32.426 75.135 33.0674 74.5642 33.7801 74.5642H42.5458C43.3297 74.5642 43.8998 75.2064 43.8998 75.9199C43.8998 76.6335 43.2584 77.2756 42.5458 77.2756Z" fill="#C2D7EF" stroke="black" stroke-miterlimit="10"/>
<path d="M69.4127 22.4763L62.0011 23.9747" stroke="black" stroke-miterlimit="10" stroke-linecap="round"/>
<path d="M105.687 100.251H72.6198C68.13 100.251 64.4955 96.6124 64.4955 92.1172V67.9998C64.4955 63.5045 68.13 59.8655 72.6198 59.8655H97.5627C102.052 59.8655 105.687 63.5045 105.687 67.9998V100.251Z" fill="white" stroke="black" stroke-miterlimit="10"/>
<path d="M85.0913 91.2609C91.2706 91.2609 96.28 86.2454 96.28 80.0584C96.28 73.8715 91.2706 68.856 85.0913 68.856C78.9119 68.856 73.9026 73.8715 73.9026 80.0584C73.9026 86.2454 78.9119 91.2609 85.0913 91.2609Z" fill="#C2D7EF" stroke="black" stroke-miterlimit="10"/>
<path d="M107.967 85.41H105.972V72.3523H107.967C109.108 72.3523 110.034 73.2799 110.034 74.4215V83.3407C109.963 84.4824 109.108 85.41 107.967 85.41Z" fill="white" stroke="black" stroke-miterlimit="10"/>
<path d="M124.501 92.4739H105.687V97.1118H124.501V92.4739Z" fill="#F38364" stroke="black" stroke-miterlimit="10"/>
<path d="M124.644 90.3333V97.8254" stroke="black" stroke-miterlimit="10"/>
</svg>
